<svg width="742" height="858" viewBox="0 0 742 858" fill="none" xmlns="http://www.w3.org/2000/svg">
<path d="M224.219 147.266C224.219 120.182 230.729 95.5729 243.75 73.4375C257.031 51.0417 274.74 33.2031 296.875 19.9219C319.01 6.64062 343.62 0 370.703 0C398.047 0 422.786 6.64062 444.922 19.9219C467.057 33.2031 484.635 51.0417 497.656 73.4375C510.938 95.5729 517.578 120.182 517.578 147.266C517.578 170.182 512.76 191.406 503.125 210.938C493.49 230.469 480.339 247.135 463.672 260.938C447.005 274.74 428.125 284.245 407.031 289.453V536.719C407.031 565.625 405.859 591.146 403.516 613.281C401.172 635.417 398.177 654.036 394.531 669.141C391.146 684.245 387.24 695.703 382.812 703.516C378.646 711.068 374.609 714.844 370.703 714.844C366.797 714.844 362.76 711.068 358.594 703.516C354.427 695.703 350.521 684.245 346.875 669.141C343.229 654.036 340.234 635.417 337.891 613.281C335.547 591.146 334.375 565.625 334.375 536.719V289.453C313.281 284.245 294.401 274.74 277.734 260.938C261.068 247.135 247.917 230.469 238.281 210.938C228.906 191.406 224.219 170.182 224.219 147.266ZM328.906 155.078C342.708 155.078 354.557 150.13 364.453 140.234C374.349 130.078 379.297 118.229 379.297 104.688C379.297 91.1458 374.349 79.4271 364.453 69.5312C354.557 59.6354 342.708 54.6875 328.906 54.6875C315.625 54.6875 303.906 59.6354 293.75 69.5312C283.854 79.4271 278.906 91.1458 278.906 104.688C278.906 118.229 283.854 130.078 293.75 140.234C303.906 150.13 315.625 155.078 328.906 155.078ZM371.094 857.812C312.24 857.812 259.766 853.125 213.672 843.75C167.839 834.635 129.036 822.135 97.2656 806.25C65.4948 790.625 41.276 772.786 24.6094 752.734C8.20312 732.943 0 712.24 0 690.625C0 670.052 5.85938 651.172 17.5781 633.984C29.2969 616.536 44.9219 601.042 64.4531 587.5C83.9844 573.958 105.599 562.5 129.297 553.125C153.255 543.49 177.474 536.198 201.953 531.25C226.693 526.042 249.74 523.438 271.094 523.438V580.469C252.344 580.729 231.901 583.464 209.766 588.672C187.63 593.62 166.667 600.521 146.875 609.375C127.083 618.229 110.807 628.776 98.0469 641.016C85.5469 653.255 79.2969 666.667 79.2969 681.25C79.2969 698.177 86.4583 713.672 100.781 727.734C115.365 741.797 135.677 753.906 161.719 764.062C188.021 774.219 218.88 782.031 254.297 787.5C289.974 793.229 328.906 796.094 371.094 796.094C413.021 796.094 451.693 793.229 487.109 787.5C522.786 782.031 553.646 774.089 579.688 763.672C605.99 753.516 626.432 741.406 641.016 727.344C655.599 713.542 662.891 698.177 662.891 681.25C662.891 666.667 656.51 653.255 643.75 641.016C630.99 628.776 614.714 618.229 594.922 609.375C575.13 600.521 554.167 593.62 532.031 588.672C510.156 583.464 489.714 580.729 470.703 580.469V523.438C492.318 523.438 515.365 526.042 539.844 531.25C564.583 536.198 588.802 543.49 612.5 553.125C636.458 562.5 658.203 573.958 677.734 587.5C697.266 601.042 712.76 616.536 724.219 633.984C735.938 651.172 741.797 670.052 741.797 690.625C741.797 712.24 733.594 732.943 717.188 752.734C700.781 772.786 676.693 790.625 644.922 806.25C613.151 822.135 574.219 834.635 528.125 843.75C482.292 853.125 429.948 857.812 371.094 857.812Z" fill="black" style="fill:black;fill-opacity:1;"/>
</svg>
