<svg width="817" height="817" viewBox="0 0 817 817" fill="none" xmlns="http://www.w3.org/2000/svg">
<path d="M408.398 816.797C352.077 816.797 299.225 806.12 249.844 784.766C200.462 763.678 157.087 734.45 119.717 697.08C82.347 659.443 52.985 616.068 31.6309 566.953C10.5436 517.572 0 464.72 0 408.398C0 352.077 10.5436 299.225 31.6309 249.844C52.985 200.462 82.347 157.087 119.717 119.717C157.087 82.347 200.462 53.1185 249.844 32.0312C299.225 10.6771 352.077 0 408.398 0C464.72 0 517.572 10.6771 566.953 32.0312C616.335 53.1185 659.71 82.347 697.08 119.717C734.45 157.087 763.678 200.462 784.766 249.844C806.12 299.225 816.797 352.077 816.797 408.398C816.797 464.72 806.12 517.572 784.766 566.953C763.678 616.068 734.45 659.443 697.08 697.08C659.71 734.45 616.335 763.678 566.953 784.766C517.572 806.12 464.72 816.797 408.398 816.797ZM322.314 236.23C322.314 255.716 328.187 273.2 339.932 288.682C351.943 303.896 366.891 314.173 384.775 319.512V458.447C384.775 480.068 385.843 498.62 387.979 514.102C390.381 529.316 393.317 540.928 396.787 548.936C400.524 556.943 404.395 560.947 408.398 560.947C412.402 560.947 416.139 557.077 419.609 549.336C423.346 541.328 426.283 529.717 428.418 514.502C430.553 499.02 431.621 480.335 431.621 458.447V319.512C449.772 314.173 464.72 303.896 476.465 288.682C488.21 273.2 494.082 255.716 494.082 236.23C494.082 212.474 485.807 192.188 469.258 175.371C452.708 158.555 432.422 150.146 408.398 150.146C384.375 150.146 363.955 158.555 347.139 175.371C330.589 192.188 322.314 212.474 322.314 236.23ZM384.375 240.234C377.168 240.234 370.762 237.565 365.156 232.227C359.551 226.621 356.748 219.948 356.748 212.207C356.748 204.466 359.551 197.926 365.156 192.588C370.762 187.249 377.168 184.58 384.375 184.58C392.116 184.58 398.656 187.249 403.994 192.588C409.6 197.926 412.402 204.466 412.402 212.207C412.402 219.948 409.6 226.621 403.994 232.227C398.656 237.565 392.116 240.234 384.375 240.234ZM408.398 642.227C452.975 642.227 491.146 637.555 522.91 628.213C554.674 618.87 578.965 606.859 595.781 592.178C612.865 577.23 621.406 561.214 621.406 544.131C621.406 528.649 616.068 514.902 605.391 502.891C594.714 490.612 581.1 480.335 564.551 472.061C548.001 463.786 530.518 457.513 512.1 453.242C493.682 448.704 476.732 446.569 461.25 446.836V484.873C475.664 484.873 491.413 487.142 508.496 491.68C525.579 496.217 540.26 502.624 552.539 510.898C564.818 519.173 570.957 528.516 570.957 538.926C570.957 550.938 564.017 561.615 550.137 570.957C536.257 580.299 517.038 587.773 492.48 593.379C468.19 598.717 440.163 601.387 408.398 601.387C376.634 601.387 348.473 598.717 323.916 593.379C299.359 588.04 280.14 580.7 266.26 571.357C252.38 561.748 245.439 550.938 245.439 538.926C245.439 528.516 251.579 519.173 263.857 510.898C276.403 502.624 291.217 496.217 308.301 491.68C325.384 487.142 341.133 484.873 355.547 484.873V446.836C340.065 446.569 323.115 448.704 304.697 453.242C286.279 457.513 268.796 463.786 252.246 472.061C235.697 480.335 222.083 490.612 211.406 502.891C200.729 514.902 195.391 528.649 195.391 544.131C195.391 561.214 203.799 577.23 220.615 592.178C237.432 606.859 261.722 618.87 293.486 628.213C325.251 637.555 363.555 642.227 408.398 642.227Z" fill="white" style="fill:white;fill-opacity:1;"/>
</svg>
